<svg width="742" height="1272" viewBox="0 0 742 1272" fill="none" xmlns="http://www.w3.org/2000/svg">
  <rect opacity="1" width="776.51" height="782.913" rx="100" transform="matrix(0.719631 0.694356 -0.719631 0.694356 81.121 94.4727)" fill="url(#paint0_linear)"/>
  <path opacity="0.8" d="M-7.53804 442.083C40.1549 396.065 117.481 396.065 165.174 442.083L279.66 552.548C327.353 598.566 327.353 673.176 279.66 719.193L165.172 829.66C117.479 875.678 40.1538 875.678 -7.53917 829.66L-122.026 719.195C-169.719 673.177 -169.719 598.567 -122.026 552.549L-7.53804 442.083Z" fill="url(#paint1_linear)"/>
  <rect opacity="0.8" y="26.3855" width="872.207" height="882.466" rx="131" transform="matrix(0.719631 0.694356 -0.719631 0.694356 105.679 8.06457)" stroke="url(#paint2_linear)" stroke-width="38"/>
  <defs>
    <linearGradient id="paint0_linear" x1="0" y1="0" x2="820.724" y2="733.438" gradientUnits="userSpaceOnUse">
      <stop stop-color="#FCEAF0"/>
      <stop offset="1" stop-color="#ECE8F3"/>
    </linearGradient>
    <linearGradient id="paint1_linear" x1="78.8178" y1="358.76" x2="106.593" y2="911.587" gradientUnits="userSpaceOnUse">
      <stop stop-color="#FCEAF0"/>
      <stop offset="1" stop-color="#ECE8F3"/>
    </linearGradient>
    <linearGradient id="paint2_linear" x1="0" y1="0" x2="964.592" y2="859.427" gradientUnits="userSpaceOnUse">
      <stop stop-color="#FCEAF0"/>
      <stop offset="1" stop-color="#ECE8F3"/>
    </linearGradient>
  </defs>
</svg>
